<?xml version="1.0" encoding="iso-8859-1"?>
<!-- Generator: Adobe Illustrator 19.0.0, SVG Export Plug-In . SVG Version: 6.00 Build 0)  -->
<svg version="1.1" id="Capa_1" xmlns="http://www.w3.org/2000/svg" xmlns:xlink="http://www.w3.org/1999/xlink" x="0px" y="0px"
	 viewBox="0 0 512 512" style="enable-background:new 0 0 512 512;" xml:space="preserve">
<g>
	<g>
		<path d="M365.123,185.506l95.814-117.612c3.971-4.874,4.479-11.707,1.276-17.115c-3.203-5.409-9.439-8.246-15.621-7.108
			c-74.22,13.668-131.459-3.867-186.814-20.821C194.281,2.787,132.416-16.163,55.985,22.053c-5.081,2.541-8.291,7.734-8.291,13.415
			v176.926v73.768v177.441c0,3.98,1.583,7.798,4.398,10.612l33.437,33.399c2.929,2.925,6.764,4.386,10.6,4.386
			s7.672-1.462,10.6-4.387l33.435-33.399c2.816-2.813,4.398-6.63,4.398-10.611V280.826c35.354-0.369,69.387,10.055,106.43,21.4
			c41.978,12.857,88.148,27.001,142.881,27c18.364,0,37.693-1.593,58.15-5.359c5.25-0.967,9.591-4.651,11.397-9.676
			c1.806-5.024,0.807-10.629-2.627-14.718L365.123,185.506z M114.567,457.386L114.567,457.386L96.13,475.803l-18.439-18.418V295.669
			c12.666-5.627,24.909-9.445,36.876-11.798V457.386z M259.779,273.545c-37.909-11.612-74.593-22.848-113.596-22.848
			c-21.89,0-44.522,3.544-68.492,12.547v-35.852V44.968c61.978-27.538,113.751-11.679,173.303,6.563
			c47.052,14.412,99.373,30.44,163.116,26.352l-80.076,98.294c-4.545,5.58-4.486,13.603,0.142,19.117l86.228,102.717
			C358.562,303.807,308.445,288.452,259.779,273.545z"/>
	</g>
</g>
<g>
</g>
<g>
</g>
<g>
</g>
<g>
</g>
<g>
</g>
<g>
</g>
<g>
</g>
<g>
</g>
<g>
</g>
<g>
</g>
<g>
</g>
<g>
</g>
<g>
</g>
<g>
</g>
<g>
</g>
</svg>
